<?xml version="1.0" encoding="utf-8"?>
<!-- Generator: Adobe Illustrator 17.0.0, SVG Export Plug-In . SVG Version: 6.00 Build 0)  -->
<!DOCTYPE svg PUBLIC "-//W3C//DTD SVG 1.0//EN" "http://www.w3.org/TR/2001/REC-SVG-20010904/DTD/svg10.dtd">
<svg version="1.0" xmlns="http://www.w3.org/2000/svg" xmlns:xlink="http://www.w3.org/1999/xlink" x="0px" y="0px"
	 width="361.321px" height="67.496px" viewBox="0 0 361.321 67.496" enable-background="new 0 0 361.321 67.496"
	 xml:space="preserve">
<g id="웹">
	<g>
		
			<text transform="matrix(1 0 0 1 77.3518 43.795)" fill="#6AC9CC" font-family="'Montserrat-Bold'" font-size="30.3" letter-spacing="3">CLEAN BASKET</text>
		<g>
			<path fill="#6AC9CC" d="M24.623,22.97c1.396,4.149,5.21,6.91,9.606,6.91c4.395,0,8.209-2.761,9.606-6.91h11.375v-4.145H40.429
				l-0.271,1.758c-0.458,2.985-2.952,5.152-5.929,5.152c-2.976,0-5.471-2.167-5.93-5.152l-0.271-1.758H12.301v14.248h8.922v15.597
				h26.059v-4.145H25.375V28.929h-8.922V22.97H24.623z"/>
			<path fill="#6AC9CC" d="M29.268,4.662l0.425-0.064v-4.27l-0.567,0.078C12.521,2.678,0,17.012,0,33.748
				c0,16.735,12.521,31.07,29.124,33.345l0.568,0.078v-4.272l-0.425-0.064C14.999,60.659,4.239,48.155,4.239,33.748
				C4.239,19.341,14.999,6.837,29.268,4.662z"/>
			<path fill="#6AC9CC" d="M58.13,10.541C52.136,4.283,44.139,0.583,35.609,0.12L33.376,0v11.439h4.239V4.555
				c6.59,0.872,12.768,4.022,17.45,8.911c4.753,4.959,7.626,11.381,8.124,18.137h-6.871v4.233h6.877
				c-0.487,6.776-3.362,13.219-8.13,18.195c-4.682,4.888-10.859,8.038-17.45,8.91v-6.195h-4.239v10.75l2.234-0.12
				c8.526-0.462,16.523-4.162,22.52-10.419c6.05-6.314,9.382-14.557,9.382-23.209C67.512,25.097,64.18,16.854,58.13,10.541z"/>
		</g>
	</g>
</g>
<g id="모바일" display="none">
	<g display="inline">
		<path fill="#70CBD0" d="M86.06,27.293l-2.617,3.099c-1.169-1.422-2.896-2.311-4.472-2.311c-2.819,0-4.954,2.235-4.954,5.157
			c0,2.973,2.135,5.233,4.954,5.233c1.499,0,3.227-0.813,4.472-2.083l2.643,2.795c-1.906,1.956-4.726,3.252-7.343,3.252
			c-5.36,0-9.35-3.938-9.35-9.146c0-5.132,4.091-8.994,9.502-8.994C81.537,24.295,84.281,25.463,86.06,27.293z"/>
		<path fill="#70CBD0" d="M103.387,38.446v3.786H91.318V24.447h4.522v13.999H103.387z"/>
		<path fill="#70CBD0" d="M113.244,28.004v3.531h8.485v3.557h-8.485v3.583h9.68v3.557h-14.202V24.447h13.923v3.557H113.244z"/>
		<path fill="#70CBD0" d="M133.062,38.954l-1.296,3.277h-4.649l7.673-17.784h4.649l7.494,17.784h-4.827l-1.271-3.277H133.062z
			 M136.974,28.944l-2.592,6.58h5.133L136.974,28.944z"/>
		<path fill="#70CBD0" d="M164.185,42.231l-8.181-10.95v10.95h-4.243V24.447h3.989l8.206,10.976V24.447h4.217v17.784H164.185z"/>
		<path fill="#70CBD0" d="M192.386,24.447c3.989,0,6.529,1.728,6.529,4.446c0,1.88-1.168,3.379-3.049,3.912
			c2.236,0.432,3.659,2.185,3.659,4.497c0,3.023-2.643,4.929-6.835,4.929h-8.714V24.447H192.386z M188.474,31.561h3.658
			c1.321,0,2.159-0.711,2.159-1.854c0-1.144-0.838-1.804-2.159-1.804h-3.658V31.561z M188.474,38.751h3.658
			c1.677,0,2.719-0.737,2.719-2.007c0-1.194-1.042-1.931-2.719-1.931h-3.658V38.751z"/>
		<path fill="#70CBD0" d="M209.357,38.954l-1.296,3.277h-4.649l7.673-17.784h4.648l7.495,17.784h-4.827l-1.271-3.277H209.357z
			 M213.27,28.944l-2.592,6.58h5.133L213.27,28.944z"/>
		<path fill="#70CBD0" d="M241.827,26.226l-1.702,3.532c-1.881-1.093-4.243-1.855-5.691-1.855c-1.169,0-1.956,0.432-1.956,1.296
			c0,3.074,9.4,1.321,9.4,7.749c0,3.557-3.15,5.437-7.114,5.437c-2.973,0-6.02-1.118-8.13-2.845l1.753-3.481
			c1.829,1.6,4.573,2.668,6.428,2.668c1.423,0,2.312-0.534,2.312-1.55c0-3.15-9.4-1.271-9.4-7.571c0-3.277,2.82-5.36,7.088-5.36
			C237.381,24.244,239.997,25.032,241.827,26.226z"/>
		<path fill="#70CBD0" d="M254.403,35.245l-2.362,2.617v4.37h-4.522V24.447h4.522v7.698l6.809-7.698h5.233l-6.605,7.368
			l7.038,10.416h-5.412L254.403,35.245z"/>
		<path fill="#70CBD0" d="M274.195,28.004v3.531h8.485v3.557h-8.485v3.583h9.68v3.557h-14.202V24.447h13.923v3.557H274.195z"/>
		<path fill="#70CBD0" d="M298.204,28.081v14.151h-4.522V28.081h-5.31v-3.659h15.192v3.659H298.204z"/>
	</g>
</g>
</svg>
