<?xml version="1.0" encoding="utf-8"?>
<!-- Generator: Adobe Illustrator 17.0.0, SVG Export Plug-In . SVG Version: 6.00 Build 0)  -->
<!DOCTYPE svg PUBLIC "-//W3C//DTD SVG 1.1//EN" "http://www.w3.org/Graphics/SVG/1.1/DTD/svg11.dtd">
<svg version="1.1" id="레이어_1" xmlns="http://www.w3.org/2000/svg" xmlns:xlink="http://www.w3.org/1999/xlink" x="0px"
	 y="0px" width="361.322px" height="67.496px" viewBox="0 0 361.322 67.496" enable-background="new 0 0 361.322 67.496"
	 xml:space="preserve">
<text transform="matrix(1 0 0 1 77.3518 43.795)" fill="#6FCACF" font-family="'Montserrat-Bold'" font-size="30.3" letter-spacing="3">CLEAN BASKET</text>
<g>
	<path fill="#6FCACF" d="M24.623,22.97c1.396,4.149,5.21,6.91,9.606,6.91c4.394,0,8.209-2.761,9.606-6.91h11.375v-4.145H40.429
		l-0.271,1.758c-0.458,2.985-2.952,5.152-5.929,5.152c-2.977,0-5.471-2.167-5.93-5.152l-0.271-1.758H12.301v14.248h8.922v15.597
		h26.059v-4.145H25.375V28.929h-8.922V22.97H24.623z"/>
	<path fill="#6FCACF" d="M29.268,4.662l0.425-0.064v-4.27l-0.567,0.078C12.521,2.678,0,17.012,0,33.748
		c0,16.735,12.52,31.07,29.124,33.345l0.568,0.078v-4.272l-0.425-0.064C14.999,60.659,4.239,48.155,4.239,33.748
		C4.239,19.341,14.999,6.837,29.268,4.662z"/>
	<path fill="#6FCACF" d="M58.13,10.541C52.136,4.283,44.139,0.583,35.609,0.12L33.376,0v11.439h4.239V4.555
		c6.59,0.872,12.767,4.022,17.45,8.911c4.753,4.959,7.626,11.381,8.124,18.137h-6.871v4.233h6.877
		c-0.487,6.776-3.362,13.219-8.13,18.195c-4.682,4.888-10.859,8.038-17.45,8.91v-6.195h-4.239v10.75l2.234-0.12
		c8.526-0.462,16.523-4.162,22.52-10.419c6.05-6.314,9.382-14.557,9.382-23.209C67.512,25.097,64.18,16.854,58.13,10.541z"/>
</g>
</svg>
