<?xml version="1.0" encoding="utf-8"?>
<!-- Generator: Adobe Illustrator 17.0.0, SVG Export Plug-In . SVG Version: 6.00 Build 0)  -->
<!DOCTYPE svg PUBLIC "-//W3C//DTD SVG 1.0//EN" "http://www.w3.org/TR/2001/REC-SVG-20010904/DTD/svg10.dtd">
<svg version="1.0" xmlns="http://www.w3.org/2000/svg" xmlns:xlink="http://www.w3.org/1999/xlink" x="0px" y="0px"
	 width="361.321px" height="67.496px" viewBox="0 0 361.321 67.496" enable-background="new 0 0 361.321 67.496"
	 xml:space="preserve">
<g id="웹" display="none">
	<g display="inline">
		
			<text transform="matrix(1 0 0 1 77.3518 43.795)" fill="#6AC9CC" font-family="'Montserrat-Bold'" font-size="30.3" letter-spacing="3">CLEAN BASKET</text>
		<g>
			<path fill="#6AC9CC" d="M24.623,22.97c1.396,4.149,5.21,6.91,9.606,6.91c4.395,0,8.209-2.761,9.606-6.91h11.375v-4.145H40.429
				l-0.271,1.758c-0.458,2.985-2.952,5.152-5.929,5.152c-2.976,0-5.471-2.167-5.93-5.152l-0.271-1.758H12.301v14.248h8.922v15.597
				h26.059v-4.145H25.375V28.929h-8.922V22.97H24.623z"/>
			<path fill="#6AC9CC" d="M29.268,4.662l0.425-0.064v-4.27l-0.567,0.078C12.521,2.678,0,17.012,0,33.748
				c0,16.735,12.521,31.07,29.124,33.345l0.568,0.078v-4.272l-0.425-0.064C14.999,60.659,4.239,48.155,4.239,33.748
				C4.239,19.341,14.999,6.837,29.268,4.662z"/>
			<path fill="#6AC9CC" d="M58.13,10.541C52.136,4.283,44.139,0.583,35.609,0.12L33.376,0v11.439h4.239V4.555
				c6.59,0.872,12.768,4.022,17.45,8.911c4.753,4.959,7.626,11.381,8.124,18.137h-6.871v4.233h6.877
				c-0.487,6.776-3.362,13.219-8.13,18.195c-4.682,4.888-10.859,8.038-17.45,8.91v-6.195h-4.239v10.75l2.234-0.12
				c8.526-0.462,16.523-4.162,22.52-10.419c6.05-6.314,9.382-14.557,9.382-23.209C67.512,25.097,64.18,16.854,58.13,10.541z"/>
		</g>
	</g>
</g>
<g id="모바일">
	<g>
		<path fill="#70CBD0" d="M26.483,24.095l-4.002,4.738c-1.787-2.175-4.429-3.534-6.837-3.534c-4.311,0-7.575,3.418-7.575,7.885
			c0,4.545,3.264,8.002,7.575,8.002c2.292,0,4.933-1.243,6.837-3.185l4.04,4.273c-2.915,2.991-7.225,4.972-11.227,4.972
			C7.099,47.246,1,41.225,1,33.262c0-7.846,6.255-13.751,14.528-13.751C19.569,19.511,23.764,21.297,26.483,24.095z"/>
		<path fill="#70CBD0" d="M52.976,41.147v5.788H34.524V19.744h6.915v21.403H52.976z"/>
		<path fill="#70CBD0" d="M68.048,25.182v5.399h12.974v5.438H68.048v5.478h14.8v5.438H61.133V19.744h21.288v5.439H68.048z"/>
		<path fill="#70CBD0" d="M98.348,41.924l-1.981,5.011h-7.109l11.732-27.192h7.109l11.458,27.192h-7.381l-1.943-5.011H98.348z
			 M104.33,26.62l-3.963,10.061h7.848L104.33,26.62z"/>
		<path fill="#70CBD0" d="M145.935,46.935l-12.508-16.742v16.742h-6.488V19.744h6.1l12.547,16.781V19.744h6.447v27.192H145.935z"/>
		<path fill="#70CBD0" d="M189.053,19.744c6.1,0,9.983,2.641,9.983,6.798c0,2.874-1.786,5.166-4.662,5.982
			c3.419,0.661,5.595,3.341,5.595,6.876c0,4.623-4.04,7.536-10.451,7.536h-13.323V19.744H189.053z M183.072,30.62h5.593
			c2.02,0,3.301-1.088,3.301-2.835c0-1.749-1.281-2.759-3.301-2.759h-5.593V30.62z M183.072,41.614h5.593
			c2.564,0,4.157-1.127,4.157-3.069c0-1.825-1.593-2.952-4.157-2.952h-5.593V41.614z"/>
		<path fill="#70CBD0" d="M215.003,41.924l-1.981,5.011h-7.109l11.732-27.192h7.107l11.46,27.192h-7.381l-1.943-5.011H215.003z
			 M220.984,26.62l-3.963,10.061h7.848L220.984,26.62z"/>
		<path fill="#70CBD0" d="M264.648,22.463l-2.602,5.4c-2.876-1.671-6.488-2.836-8.702-2.836c-1.787,0-2.991,0.661-2.991,1.981
			c0,4.7,14.373,2.02,14.373,11.847c0,5.439-4.817,8.313-10.877,8.313c-4.545,0-9.205-1.709-12.43-4.35l2.68-5.322
			c2.797,2.447,6.992,4.079,9.828,4.079c2.175,0,3.536-0.816,3.536-2.37c0-4.817-14.373-1.943-14.373-11.576
			c0-5.011,4.312-8.196,10.837-8.196C257.85,19.433,261.85,20.637,264.648,22.463z"/>
		<path fill="#70CBD0" d="M283.877,36.253l-3.612,4.002v6.681h-6.915V19.744h6.915v11.77l10.41-11.77h8.002l-10.1,11.265
			l10.761,15.927h-8.275L283.877,36.253z"/>
		<path fill="#70CBD0" d="M314.138,25.182v5.399h12.974v5.438h-12.974v5.478h14.8v5.438h-21.715V19.744h21.288v5.439H314.138z"/>
		<path fill="#70CBD0" d="M350.847,25.299v21.636h-6.915V25.299h-8.118v-5.594h23.229v5.594H350.847z"/>
	</g>
</g>
</svg>
